<svg width="648" height="648" viewBox="0 0 648 648" fill="none" xmlns="http://www.w3.org/2000/svg">
<path d="M162 167.4C162 137.16 162 122.04 167.886 110.484C173.063 100.324 181.324 92.0631 191.484 86.886C203.04 81 218.16 81 248.4 81H399.6C429.84 81 444.96 81 456.516 86.886C466.676 92.0631 474.937 100.324 480.114 110.484C486 122.04 486 137.16 486 167.4V526.635C486 539.757 486 546.318 483.273 549.909C482.095 551.471 480.591 552.758 478.866 553.681C477.141 554.604 475.236 555.141 473.283 555.255C468.774 555.525 463.32 551.88 452.412 544.617L324 459L195.588 544.59C184.68 551.88 179.226 555.525 174.69 555.255C172.742 555.137 170.842 554.598 169.122 553.675C167.402 552.752 165.902 551.467 164.727 549.909C162 546.318 162 539.757 162 526.635V167.4Z" fill="url(#paint0_linear_1_14)"/>
<defs>
<linearGradient id="paint0_linear_1_14" x1="324" y1="282.42" x2="324" y2="555.269" gradientUnits="userSpaceOnUse">
<stop/>
<stop offset="1" stop-color="#666666"/>
</linearGradient>
</defs>
</svg>
